<svg id="LOGO" xmlns="http://www.w3.org/2000/svg" viewBox="0 0 426 372.9">
  <title>LOGO</title>
  <g id="LG">
    <path id="pg" d="M180.4,153.9H112c-40.7,0-72.2,41.9-72.2,89.9,0,47.2,29.8,90,81.1,90h97.8V40.1h119c27.4,1.1,50.1,30.1,50.1,56.9,0,12.3-9.2,54.9-50.5,56.5H267" style="fill: none;stroke: #8fb9b1;stroke-width: 15px"/>
  </g>
  <g id="L1">
    <path id="p1" d="M180.4,119.8H118C55.6,119.5,5,175.9,5,243.7c0,68.6,50.6,124.2,113,124.2H252V73.7h80.8c11.3,0,20.5,10.3,20.5,23s-5,23.4-20.5,23.4H267.1" style="fill: none;stroke: #2a2c56;stroke-width: 10px"/>
  </g>
  <g id="L2">
    <path id="p2" d="M180.3,142.6h-70c-46.8,0-82,53-82,101,0,47.2,31,101.1,91,101.1h111V51.5H336.1c25.2,0,40.7,25.8,40.7,45,0,18.5-13,46.3-41.1,45.8H267.1" style="fill: none;stroke: #2a2c56;stroke-width: 10px"/>
  </g>
  <g id="L3">
    <path id="p3" d="M267.1,165h68.6c44,0,63.3-43.7,63.3-68.2C399,65.2,370.7,29,336.1,29H207.3V322.9h-88c-38.6,0-68.3-31.8-68.3-79,0-48,33.4-78.6,59.3-78.6h70" style="fill: none;stroke: #2a2c56;stroke-width: 10px"/>
  </g>
  <g id="L4">
    <path id="p4" d="M267.1,185.9h71.3c43.9,0,82.6-43.1,82.6-90.7C421,42.5,373.3,5,338.1,5H184.7V298.9H118.3c-37.9,0-44.5-44.4-44.5-56.6,0-26.6,14.6-56.5,44.2-56.5h62.3" style="fill: none;stroke: #2a2c56;stroke-width: 10px"/>
  </g>
</svg>
