<?xml version="1.0" encoding="utf-8"?>
<!-- Generator: Adobe Illustrator 21.1.0, SVG Export Plug-In . SVG Version: 6.00 Build 0)  -->
<svg version="1.1" id="LOGO" xmlns="http://www.w3.org/2000/svg" xmlns:xlink="http://www.w3.org/1999/xlink" x="0px" y="0px"
	 viewBox="0 0 426 372.9" enable-background="new 0 0 426 372.9" xml:space="preserve">
<title>LOGO</title>
<g id="LG">
	<path id="pg" fill="none" stroke="#8FB9B1" stroke-width="8" d="M92.7,79.4H58.5c-20.3,0-36.1,20.9-36.1,44.9
		c0,23.6,14.9,45,40.5,45h48.9V22.5h59.5c13.7,0.5,25.1,15,25.1,28.4c0,6.2-4.6,27.4-25.2,28.2H136"/>
</g>
<g id="L1">
	<path id="p1" fill="none" stroke="#2A2C56" stroke-width="5" d="M92.7,62.4H61.5C30.3,62.2,5,90.4,5,124.3
		c0,34.3,25.3,62.1,56.5,62.1h67V39.3h40.4c5.6,0,10.2,5.2,10.2,11.5s-2.5,11.7-10.2,11.7H136"/>
</g>
<g id="L2">
	<path id="p2" fill="none" stroke="#2A2C56" stroke-width="5" d="M92.6,73.8h-35c-23.4,0-41,26.5-41,50.5
		c0,23.6,15.5,50.5,45.5,50.5h55.5V28.2h52.9c12.6,0,20.4,12.9,20.4,22.5c0,9.2-6.5,23.1-20.6,22.9H136"/>
</g>
<g id="L3">
	<path id="p3" fill="none" stroke="#2A2C56" stroke-width="5" d="M136,85h34.3c22,0,31.6-21.8,31.6-34.1c0-15.8-14.1-33.9-31.4-33.9
		h-64.4v146.9h-44C42.8,163.9,28,148,28,124.4c0-24,16.7-39.3,29.6-39.3h35"/>
</g>
<g id="L4">
	<path id="p4" fill="none" stroke="#2A2C56" stroke-width="5" d="M136,95.4h35.7c21.9,0,41.3-21.6,41.3-45.3
		C213,23.7,189.1,5,171.5,5H94.8v146.9H61.6c-19,0-22.2-22.2-22.2-28.3c0-13.3,7.3-28.2,22.1-28.2h31.1"/>
</g>
</svg>
