<svg id="TEXT" xmlns="http://www.w3.org/2000/svg" viewBox="0 0 193 9.86">
  <title>STEXT</title>
  <g>
    <path d="M3.14,9.69V1.28H0V.15H7.56V1.28H4.4V9.69Z" style="fill: #2d286a"/>
    <path d="M16.05,9.69V.17h1.26V4.08h5V.17h1.26V9.69H22.27V5.18h-5V9.69Z" style="fill: #2d286a"/>
    <path d="M33.06,9.69V.17H40V1.29H34.32V4.22h5.27V5.33H34.32V8.58h5.85V9.71Z" style="fill: #2d286a"/>
    <path d="M56.71,9.69V.17H60a8,8,0,0,1,1.7.14,3.23,3.23,0,0,1,1.4.68,3.88,3.88,0,0,1,1.13,1.63,6.39,6.39,0,0,1,.38,2.27,6.66,6.66,0,0,1-.26,1.92,4.68,4.68,0,0,1-.65,1.39,3.44,3.44,0,0,1-.87.86,3.51,3.51,0,0,1-1.14.5,6.51,6.51,0,0,1-1.53.16ZM58,8.56h2a4.94,4.94,0,0,0,1.5-.18,2.12,2.12,0,0,0,.86-.5,3,3,0,0,0,.69-1.2,5.9,5.9,0,0,0,.25-1.84,4.43,4.43,0,0,0-.5-2.3,2.47,2.47,0,0,0-1.19-1.08A4.93,4.93,0,0,0,60,1.27H58Z" style="fill: #2d286a"/>
    <path d="M73.75,9.69V.17H78a5.64,5.64,0,0,1,1.94.26A2.12,2.12,0,0,1,81,1.33a2.71,2.71,0,0,1,.4,1.44,2.4,2.4,0,0,1-.66,1.71,3.32,3.32,0,0,1-2,.88,3.27,3.27,0,0,1,.76.48,6.55,6.55,0,0,1,1,1.27l1.66,2.6H80.59l-1.26-2q-.55-.86-.91-1.31a2.86,2.86,0,0,0-.64-.64,1.9,1.9,0,0,0-.58-.26,3.8,3.8,0,0,0-.7,0H75V9.68ZM75,4.36h2.71a4.06,4.06,0,0,0,1.35-.18,1.44,1.44,0,0,0,.74-.57,1.54,1.54,0,0,0,.26-.86,1.42,1.42,0,0,0-.5-1.11A2.3,2.3,0,0,0,78,1.2H75Z" style="fill: #2d286a"/>
    <path d="M90.78,9.69V.17h6.9V1.29H92V4.22h5.27V5.33H92V8.58h5.85V9.71Z" style="fill: #2d286a"/>
    <path d="M105.25,9.69,108.91.17h1.36l3.9,9.52h-1.44L111.62,6.8h-4l-1,2.89ZM108,5.77h3.23l-1-2.64q-.46-1.2-.68-2a12.19,12.19,0,0,1-.5,1.82Z" style="fill: #2d286a"/>
    <path d="M121.81,9.69V.17h1.89L126,6.92q.31.94.46,1.41.16-.5.5-1.5L129.19.19h1.7V9.71h-1.18v-8l-2.77,8H125.8L123,1.56V9.68Z" style="fill: #2d286a"/>
    <path d="M140.34,9.69V.17h3.6a8.68,8.68,0,0,1,1.45.09,2.88,2.88,0,0,1,1.18.45,2.34,2.34,0,0,1,.76.92,3.11,3.11,0,0,1-.5,3.36,3.71,3.71,0,0,1-2.8.84h-2.45V9.7Zm1.26-5h2.47a2.62,2.62,0,0,0,1.73-.46,1.62,1.62,0,0,0,.5-1.28,1.72,1.72,0,0,0-.3-1,1.41,1.41,0,0,0-.8-.56A5.39,5.39,0,0,0,144,1.29h-2.44Z" style="fill: #2d286a"/>
    <path d="M156.6,9.69V.17h1.26V9.69Z" style="fill: #2d286a"/>
    <path d="M167.47,9.69V.17h1.29l5,7.49V.15H175V9.67h-1.29l-5-7.49V9.67Z" style="fill: #2d286a"/>
    <path d="M189,5.94V4.83h4V8.36a7.13,7.13,0,0,1-1.92,1.12,5.69,5.69,0,0,1-2,.38,5.41,5.41,0,0,1-2.55-.6,4,4,0,0,1-1.73-1.74A5.48,5.48,0,0,1,184.21,5a5.91,5.91,0,0,1,.58-2.6A3.87,3.87,0,0,1,186.46.59,5.25,5.25,0,0,1,189,0a5,5,0,0,1,1.87.34,3.1,3.1,0,0,1,1.31.93,4.14,4.14,0,0,1,.72,1.56l-1.14.31A3.51,3.51,0,0,0,191.2,2a2.2,2.2,0,0,0-.91-.67A3.35,3.35,0,0,0,189,1.08a3.87,3.87,0,0,0-1.5.27,2.8,2.8,0,0,0-1,.69,3.3,3.3,0,0,0-.64.94,5,5,0,0,0-.37,1.92A4.67,4.67,0,0,0,185.91,7a2.81,2.81,0,0,0,1.28,1.27,4,4,0,0,0,1.78.42,4.23,4.23,0,0,0,1.6-.32,4.12,4.12,0,0,0,1.18-.67V6Z" style="fill: #2d286a"/>
  </g>
</svg>
