<svg id="TEXT" data-name="TEXT" xmlns="http://www.w3.org/2000/svg" viewBox="0 0 385.14 19.67">
  <title>TEXT</title>
  <g>
    <path d="M773.43,549.39V532.61h-6.27v-2.25h15.08v2.25h-6.29v16.78Z" transform="translate(-767.16 -530.04)" style="fill: #2d286a"/>
    <path d="M799.19,549.39v-19h2.52v7.81h9.89v-7.81h2.52v19H811.6v-9h-9.89v9Z" transform="translate(-767.16 -530.04)" style="fill: #2d286a"/>
    <path d="M833.13,549.39v-19h13.76v2.25H835.64v5.83h10.52v2.23H835.64v6.48h11.68v2.25Z" transform="translate(-767.16 -530.04)" style="fill: #2d286a"/>
    <path d="M880.33,549.39v-19h6.55a15.9,15.9,0,0,1,3.39.27,6.44,6.44,0,0,1,2.79,1.36,7.74,7.74,0,0,1,2.25,3.25,12.75,12.75,0,0,1,.75,4.52,13.29,13.29,0,0,1-.51,3.84,9.33,9.33,0,0,1-1.3,2.77,6.86,6.86,0,0,1-1.73,1.72,7,7,0,0,1-2.27,1,13,13,0,0,1-3.06.32Zm2.52-2.25h4.06a9.86,9.86,0,0,0,3-.35,4.23,4.23,0,0,0,1.71-1A6,6,0,0,0,893,543.4a11.78,11.78,0,0,0,.5-3.67,8.85,8.85,0,0,0-1-4.59,4.93,4.93,0,0,0-2.38-2.15,9.83,9.83,0,0,0-3.26-.39h-4Z" transform="translate(-767.16 -530.04)" style="fill: #2d286a"/>
    <path d="M914.33,549.39v-19h8.43a11.25,11.25,0,0,1,3.87.51,4.23,4.23,0,0,1,2.12,1.81,5.4,5.4,0,0,1,.79,2.87,4.78,4.78,0,0,1-1.31,3.41,6.63,6.63,0,0,1-4,1.76,6.53,6.53,0,0,1,1.52.95,13.07,13.07,0,0,1,2.09,2.53l3.31,5.18h-3.17l-2.52-4q-1.1-1.71-1.82-2.62a5.71,5.71,0,0,0-1.28-1.27,3.8,3.8,0,0,0-1.15-.51,7.58,7.58,0,0,0-1.4-.09h-2.92v8.45Zm2.52-10.63h5.41a8.11,8.11,0,0,0,2.7-.36,2.87,2.87,0,0,0,1.48-1.14,3.08,3.08,0,0,0,.51-1.71,2.84,2.84,0,0,0-1-2.22,4.59,4.59,0,0,0-3.1-.87h-6Z" transform="translate(-767.16 -530.04)" style="fill: #2d286a"/>
    <path d="M948.31,549.39v-19h13.76v2.25H950.82v5.83h10.52v2.23H950.82v6.48H962.5v2.25Z" transform="translate(-767.16 -530.04)" style="fill: #2d286a"/>
    <path d="M977.19,549.39l7.31-19h2.71l7.79,19h-2.87l-2.22-5.76h-8l-2.09,5.76Zm5.49-7.81h6.45l-2-5.27q-.91-2.4-1.35-3.94a24.32,24.32,0,0,1-1,3.63Z" transform="translate(-767.16 -530.04)" style="fill: #2d286a"/>
    <path d="M1010.23,549.39v-19H1014l4.5,13.47q.62,1.88.91,2.82.32-1,1-3l4.55-13.24h3.39v19H1026V533.46l-5.53,15.92h-2.27l-5.5-16.2v16.2Z" transform="translate(-767.16 -530.04)" style="fill: #2d286a"/>
    <path d="M1047.22,549.39v-19h7.18a17.33,17.33,0,0,1,2.89.18,5.75,5.75,0,0,1,2.35.89,4.67,4.67,0,0,1,1.52,1.84,6.2,6.2,0,0,1-1,6.7q-1.54,1.68-5.58,1.68h-4.88v7.73Zm2.52-10h4.92a5.22,5.22,0,0,0,3.46-.91,3.24,3.24,0,0,0,1-2.56,3.44,3.44,0,0,0-.6-2,2.82,2.82,0,0,0-1.59-1.12,10.76,10.76,0,0,0-2.35-.17h-4.87Z" transform="translate(-767.16 -530.04)" style="fill: #2d286a"/>
    <path d="M1079.66,549.39v-19h2.52v19Z" transform="translate(-767.16 -530.04)" style="fill: #2d286a"/>
    <path d="M1101.36,549.39v-19h2.58l10,14.94V530.36h2.41v19h-2.58l-10-14.95v14.95Z" transform="translate(-767.16 -530.04)" style="fill: #2d286a"/>
    <path d="M1144.24,541.92v-2.23h8.06v7.06a14.23,14.23,0,0,1-3.83,2.23,11.36,11.36,0,0,1-4,.75,10.79,10.79,0,0,1-5.09-1.2,7.93,7.93,0,0,1-3.46-3.47,10.93,10.93,0,0,1-1.17-5.07,11.79,11.79,0,0,1,1.16-5.18,7.73,7.73,0,0,1,3.34-3.58,10.48,10.48,0,0,1,5-1.17,10,10,0,0,1,3.73.67,6.18,6.18,0,0,1,2.62,1.86,8.27,8.27,0,0,1,1.44,3.11l-2.27.62a7,7,0,0,0-1.06-2.28,4.39,4.39,0,0,0-1.82-1.33,6.68,6.68,0,0,0-2.62-.5,7.73,7.73,0,0,0-3,.53,5.58,5.58,0,0,0-2,1.38A6.59,6.59,0,0,0,1138,536a10,10,0,0,0-.73,3.83,9.31,9.31,0,0,0,.88,4.26,5.61,5.61,0,0,0,2.55,2.54,7.89,7.89,0,0,0,3.56.83,8.44,8.44,0,0,0,3.19-.63,8.22,8.22,0,0,0,2.36-1.34v-3.54Z" transform="translate(-767.16 -530.04)" style="fill: #2d286a"/>
  </g>
</svg>
